<mxfile host="app.diagrams.net" agent="Mozilla/5.0 (Windows NT 10.0; Win64; x64) AppleWebKit/537.36 (KHTML, like Gecko) Chrome/141.0.0.0 Safari/537.36" version="28.2.8">
  <diagram id="C5RBs43oDa-KdzZeNtuy" name="Page-1">
    <mxGraphModel dx="1678" dy="914" grid="0" gridSize="10" guides="1" tooltips="1" connect="1" arrows="1" fold="1" page="1" pageScale="1" pageWidth="827" pageHeight="1169" background="#ffffff" math="0" shadow="0">
      <root>
        <mxCell id="WIyWlLk6GJQsqaUBKTNV-0" />
        <mxCell id="WIyWlLk6GJQsqaUBKTNV-1" parent="WIyWlLk6GJQsqaUBKTNV-0" />
        <mxCell id="wgn1k_zZXrFXxsWtTA8u-6" style="edgeStyle=orthogonalEdgeStyle;rounded=0;orthogonalLoop=1;jettySize=auto;html=1;exitX=0.5;exitY=1;exitDx=0;exitDy=0;entryX=0.5;entryY=0;entryDx=0;entryDy=0;" edge="1" parent="WIyWlLk6GJQsqaUBKTNV-1" source="wgn1k_zZXrFXxsWtTA8u-1" target="wgn1k_zZXrFXxsWtTA8u-3">
          <mxGeometry relative="1" as="geometry" />
        </mxCell>
        <mxCell id="wgn1k_zZXrFXxsWtTA8u-1" value="เข้าเกม นับเวลา" style="rounded=0;whiteSpace=wrap;html=1;" vertex="1" parent="WIyWlLk6GJQsqaUBKTNV-1">
          <mxGeometry x="360" y="20" width="120" height="30" as="geometry" />
        </mxCell>
        <mxCell id="wgn1k_zZXrFXxsWtTA8u-9" style="edgeStyle=orthogonalEdgeStyle;rounded=0;orthogonalLoop=1;jettySize=auto;html=1;exitX=1;exitY=0.75;exitDx=0;exitDy=0;entryX=0;entryY=0.75;entryDx=0;entryDy=0;" edge="1" parent="WIyWlLk6GJQsqaUBKTNV-1" source="wgn1k_zZXrFXxsWtTA8u-3" target="wgn1k_zZXrFXxsWtTA8u-8">
          <mxGeometry relative="1" as="geometry" />
        </mxCell>
        <mxCell id="wgn1k_zZXrFXxsWtTA8u-11" style="edgeStyle=orthogonalEdgeStyle;rounded=0;orthogonalLoop=1;jettySize=auto;html=1;exitX=0;exitY=0.75;exitDx=0;exitDy=0;entryX=1;entryY=0.75;entryDx=0;entryDy=0;" edge="1" parent="WIyWlLk6GJQsqaUBKTNV-1" source="wgn1k_zZXrFXxsWtTA8u-3" target="wgn1k_zZXrFXxsWtTA8u-7">
          <mxGeometry relative="1" as="geometry" />
        </mxCell>
        <mxCell id="wgn1k_zZXrFXxsWtTA8u-15" style="edgeStyle=orthogonalEdgeStyle;rounded=0;orthogonalLoop=1;jettySize=auto;html=1;exitX=0.5;exitY=1;exitDx=0;exitDy=0;entryX=0.5;entryY=0;entryDx=0;entryDy=0;" edge="1" parent="WIyWlLk6GJQsqaUBKTNV-1" source="wgn1k_zZXrFXxsWtTA8u-3" target="wgn1k_zZXrFXxsWtTA8u-4">
          <mxGeometry relative="1" as="geometry" />
        </mxCell>
        <mxCell id="wgn1k_zZXrFXxsWtTA8u-3" value="ห้องนั่งเล่น" style="rounded=0;whiteSpace=wrap;html=1;" vertex="1" parent="WIyWlLk6GJQsqaUBKTNV-1">
          <mxGeometry x="360" y="90" width="120" height="30" as="geometry" />
        </mxCell>
        <mxCell id="wgn1k_zZXrFXxsWtTA8u-20" style="edgeStyle=orthogonalEdgeStyle;rounded=0;orthogonalLoop=1;jettySize=auto;html=1;exitX=0.5;exitY=1;exitDx=0;exitDy=0;entryX=0.5;entryY=0;entryDx=0;entryDy=0;" edge="1" parent="WIyWlLk6GJQsqaUBKTNV-1" source="wgn1k_zZXrFXxsWtTA8u-4" target="wgn1k_zZXrFXxsWtTA8u-30">
          <mxGeometry relative="1" as="geometry">
            <mxPoint x="420" y="260" as="targetPoint" />
          </mxGeometry>
        </mxCell>
        <mxCell id="wgn1k_zZXrFXxsWtTA8u-4" value="หาเบาะแส" style="rounded=0;whiteSpace=wrap;html=1;" vertex="1" parent="WIyWlLk6GJQsqaUBKTNV-1">
          <mxGeometry x="360" y="210" width="120" height="30" as="geometry" />
        </mxCell>
        <mxCell id="wgn1k_zZXrFXxsWtTA8u-12" style="edgeStyle=orthogonalEdgeStyle;rounded=0;orthogonalLoop=1;jettySize=auto;html=1;exitX=1;exitY=0.25;exitDx=0;exitDy=0;entryX=0;entryY=0.25;entryDx=0;entryDy=0;" edge="1" parent="WIyWlLk6GJQsqaUBKTNV-1" source="wgn1k_zZXrFXxsWtTA8u-7" target="wgn1k_zZXrFXxsWtTA8u-3">
          <mxGeometry relative="1" as="geometry" />
        </mxCell>
        <mxCell id="wgn1k_zZXrFXxsWtTA8u-13" style="edgeStyle=orthogonalEdgeStyle;rounded=0;orthogonalLoop=1;jettySize=auto;html=1;exitX=0.5;exitY=1;exitDx=0;exitDy=0;entryX=0;entryY=0.5;entryDx=0;entryDy=0;" edge="1" parent="WIyWlLk6GJQsqaUBKTNV-1" source="wgn1k_zZXrFXxsWtTA8u-7" target="wgn1k_zZXrFXxsWtTA8u-4">
          <mxGeometry relative="1" as="geometry" />
        </mxCell>
        <mxCell id="wgn1k_zZXrFXxsWtTA8u-7" value="ห้องนอน" style="rounded=0;whiteSpace=wrap;html=1;" vertex="1" parent="WIyWlLk6GJQsqaUBKTNV-1">
          <mxGeometry x="220" y="90" width="120" height="30" as="geometry" />
        </mxCell>
        <mxCell id="wgn1k_zZXrFXxsWtTA8u-10" style="edgeStyle=orthogonalEdgeStyle;rounded=0;orthogonalLoop=1;jettySize=auto;html=1;exitX=0;exitY=0.25;exitDx=0;exitDy=0;entryX=1;entryY=0.25;entryDx=0;entryDy=0;" edge="1" parent="WIyWlLk6GJQsqaUBKTNV-1" source="wgn1k_zZXrFXxsWtTA8u-8" target="wgn1k_zZXrFXxsWtTA8u-3">
          <mxGeometry relative="1" as="geometry" />
        </mxCell>
        <mxCell id="wgn1k_zZXrFXxsWtTA8u-14" style="edgeStyle=orthogonalEdgeStyle;rounded=0;orthogonalLoop=1;jettySize=auto;html=1;exitX=0.5;exitY=1;exitDx=0;exitDy=0;entryX=1;entryY=0.5;entryDx=0;entryDy=0;" edge="1" parent="WIyWlLk6GJQsqaUBKTNV-1" source="wgn1k_zZXrFXxsWtTA8u-8" target="wgn1k_zZXrFXxsWtTA8u-4">
          <mxGeometry relative="1" as="geometry" />
        </mxCell>
        <mxCell id="wgn1k_zZXrFXxsWtTA8u-8" value="ห้องครัว" style="rounded=0;whiteSpace=wrap;html=1;" vertex="1" parent="WIyWlLk6GJQsqaUBKTNV-1">
          <mxGeometry x="500" y="90" width="120" height="30" as="geometry" />
        </mxCell>
        <mxCell id="wgn1k_zZXrFXxsWtTA8u-49" style="edgeStyle=orthogonalEdgeStyle;rounded=0;orthogonalLoop=1;jettySize=auto;html=1;exitX=0.5;exitY=1;exitDx=0;exitDy=0;entryX=0.5;entryY=0;entryDx=0;entryDy=0;" edge="1" parent="WIyWlLk6GJQsqaUBKTNV-1" source="wgn1k_zZXrFXxsWtTA8u-19" target="wgn1k_zZXrFXxsWtTA8u-22">
          <mxGeometry relative="1" as="geometry" />
        </mxCell>
        <mxCell id="wgn1k_zZXrFXxsWtTA8u-19" value="เข้าโลกความฝัน&lt;div&gt;เวลา 22: 00&lt;br&gt;|| เข้านอนเอง&lt;/div&gt;" style="rounded=0;whiteSpace=wrap;html=1;" vertex="1" parent="WIyWlLk6GJQsqaUBKTNV-1">
          <mxGeometry x="360" y="410" width="120" height="50" as="geometry" />
        </mxCell>
        <mxCell id="wgn1k_zZXrFXxsWtTA8u-38" style="edgeStyle=orthogonalEdgeStyle;rounded=0;orthogonalLoop=1;jettySize=auto;html=1;exitX=1;exitY=0.5;exitDx=0;exitDy=0;entryX=0.5;entryY=0;entryDx=0;entryDy=0;" edge="1" parent="WIyWlLk6GJQsqaUBKTNV-1" source="wgn1k_zZXrFXxsWtTA8u-22" target="wgn1k_zZXrFXxsWtTA8u-37">
          <mxGeometry relative="1" as="geometry" />
        </mxCell>
        <mxCell id="wgn1k_zZXrFXxsWtTA8u-65" style="edgeStyle=orthogonalEdgeStyle;rounded=0;orthogonalLoop=1;jettySize=auto;html=1;exitX=0;exitY=0.5;exitDx=0;exitDy=0;entryX=1;entryY=0.5;entryDx=0;entryDy=0;" edge="1" parent="WIyWlLk6GJQsqaUBKTNV-1" source="wgn1k_zZXrFXxsWtTA8u-22" target="wgn1k_zZXrFXxsWtTA8u-63">
          <mxGeometry relative="1" as="geometry" />
        </mxCell>
        <mxCell id="wgn1k_zZXrFXxsWtTA8u-22" value="เลือกผี" style="rhombus;whiteSpace=wrap;html=1;" vertex="1" parent="WIyWlLk6GJQsqaUBKTNV-1">
          <mxGeometry x="380" y="540" width="80" height="80" as="geometry" />
        </mxCell>
        <mxCell id="wgn1k_zZXrFXxsWtTA8u-51" style="edgeStyle=orthogonalEdgeStyle;rounded=0;orthogonalLoop=1;jettySize=auto;html=1;exitX=0.5;exitY=0;exitDx=0;exitDy=0;entryX=0.5;entryY=1;entryDx=0;entryDy=0;" edge="1" parent="WIyWlLk6GJQsqaUBKTNV-1" source="wgn1k_zZXrFXxsWtTA8u-24" target="wgn1k_zZXrFXxsWtTA8u-48">
          <mxGeometry relative="1" as="geometry" />
        </mxCell>
        <mxCell id="wgn1k_zZXrFXxsWtTA8u-24" value="ตื่นนอน" style="rounded=0;whiteSpace=wrap;html=1;" vertex="1" parent="WIyWlLk6GJQsqaUBKTNV-1">
          <mxGeometry x="70" y="530" width="120" height="30" as="geometry" />
        </mxCell>
        <mxCell id="wgn1k_zZXrFXxsWtTA8u-29" style="edgeStyle=orthogonalEdgeStyle;rounded=0;orthogonalLoop=1;jettySize=auto;html=1;entryX=0.5;entryY=1;entryDx=0;entryDy=0;exitX=0;exitY=0.5;exitDx=0;exitDy=0;" edge="1" parent="WIyWlLk6GJQsqaUBKTNV-1" source="wgn1k_zZXrFXxsWtTA8u-37" target="wgn1k_zZXrFXxsWtTA8u-24">
          <mxGeometry relative="1" as="geometry">
            <mxPoint x="130" y="570" as="sourcePoint" />
          </mxGeometry>
        </mxCell>
        <mxCell id="wgn1k_zZXrFXxsWtTA8u-33" style="edgeStyle=orthogonalEdgeStyle;rounded=0;orthogonalLoop=1;jettySize=auto;html=1;exitX=0;exitY=0.5;exitDx=0;exitDy=0;entryX=0.5;entryY=0;entryDx=0;entryDy=0;" edge="1" parent="WIyWlLk6GJQsqaUBKTNV-1" source="wgn1k_zZXrFXxsWtTA8u-30" target="wgn1k_zZXrFXxsWtTA8u-31">
          <mxGeometry relative="1" as="geometry" />
        </mxCell>
        <mxCell id="wgn1k_zZXrFXxsWtTA8u-34" style="edgeStyle=orthogonalEdgeStyle;rounded=0;orthogonalLoop=1;jettySize=auto;html=1;exitX=1;exitY=0.5;exitDx=0;exitDy=0;entryX=0.5;entryY=0;entryDx=0;entryDy=0;" edge="1" parent="WIyWlLk6GJQsqaUBKTNV-1" source="wgn1k_zZXrFXxsWtTA8u-30" target="wgn1k_zZXrFXxsWtTA8u-32">
          <mxGeometry relative="1" as="geometry" />
        </mxCell>
        <mxCell id="wgn1k_zZXrFXxsWtTA8u-30" value="ใช้ไอเท็ม" style="rhombus;whiteSpace=wrap;html=1;" vertex="1" parent="WIyWlLk6GJQsqaUBKTNV-1">
          <mxGeometry x="380" y="250" width="80" height="80" as="geometry" />
        </mxCell>
        <mxCell id="wgn1k_zZXrFXxsWtTA8u-35" style="edgeStyle=orthogonalEdgeStyle;rounded=0;orthogonalLoop=1;jettySize=auto;html=1;exitX=0.5;exitY=1;exitDx=0;exitDy=0;entryX=0;entryY=0.5;entryDx=0;entryDy=0;" edge="1" parent="WIyWlLk6GJQsqaUBKTNV-1" source="wgn1k_zZXrFXxsWtTA8u-31" target="wgn1k_zZXrFXxsWtTA8u-19">
          <mxGeometry relative="1" as="geometry" />
        </mxCell>
        <mxCell id="wgn1k_zZXrFXxsWtTA8u-31" value="มีป้องกัน" style="rounded=0;whiteSpace=wrap;html=1;" vertex="1" parent="WIyWlLk6GJQsqaUBKTNV-1">
          <mxGeometry x="260" y="350" width="120" height="30" as="geometry" />
        </mxCell>
        <mxCell id="wgn1k_zZXrFXxsWtTA8u-36" style="edgeStyle=orthogonalEdgeStyle;rounded=0;orthogonalLoop=1;jettySize=auto;html=1;exitX=0.5;exitY=1;exitDx=0;exitDy=0;entryX=1;entryY=0.5;entryDx=0;entryDy=0;" edge="1" parent="WIyWlLk6GJQsqaUBKTNV-1" source="wgn1k_zZXrFXxsWtTA8u-32" target="wgn1k_zZXrFXxsWtTA8u-19">
          <mxGeometry relative="1" as="geometry" />
        </mxCell>
        <mxCell id="wgn1k_zZXrFXxsWtTA8u-32" value="ไม่มีป้องกัน" style="rounded=0;whiteSpace=wrap;html=1;" vertex="1" parent="WIyWlLk6GJQsqaUBKTNV-1">
          <mxGeometry x="470" y="350" width="120" height="30" as="geometry" />
        </mxCell>
        <mxCell id="wgn1k_zZXrFXxsWtTA8u-40" style="edgeStyle=orthogonalEdgeStyle;rounded=0;orthogonalLoop=1;jettySize=auto;html=1;exitX=1;exitY=0.5;exitDx=0;exitDy=0;entryX=0.5;entryY=0;entryDx=0;entryDy=0;" edge="1" parent="WIyWlLk6GJQsqaUBKTNV-1" source="wgn1k_zZXrFXxsWtTA8u-37" target="wgn1k_zZXrFXxsWtTA8u-39">
          <mxGeometry relative="1" as="geometry" />
        </mxCell>
        <mxCell id="wgn1k_zZXrFXxsWtTA8u-37" value="มีไอเท็มไหม" style="rhombus;whiteSpace=wrap;html=1;" vertex="1" parent="WIyWlLk6GJQsqaUBKTNV-1">
          <mxGeometry x="470" y="600" width="80" height="80" as="geometry" />
        </mxCell>
        <mxCell id="wgn1k_zZXrFXxsWtTA8u-41" style="edgeStyle=orthogonalEdgeStyle;rounded=0;orthogonalLoop=1;jettySize=auto;html=1;exitX=0.5;exitY=1;exitDx=0;exitDy=0;entryX=0.5;entryY=0;entryDx=0;entryDy=0;" edge="1" parent="WIyWlLk6GJQsqaUBKTNV-1" source="wgn1k_zZXrFXxsWtTA8u-39" target="wgn1k_zZXrFXxsWtTA8u-42">
          <mxGeometry relative="1" as="geometry">
            <mxPoint x="609.1666666666667" y="760" as="targetPoint" />
          </mxGeometry>
        </mxCell>
        <mxCell id="wgn1k_zZXrFXxsWtTA8u-39" value="เพิ่มค่าความหลอน" style="rounded=0;whiteSpace=wrap;html=1;" vertex="1" parent="WIyWlLk6GJQsqaUBKTNV-1">
          <mxGeometry x="550" y="690" width="120" height="30" as="geometry" />
        </mxCell>
        <mxCell id="wgn1k_zZXrFXxsWtTA8u-46" style="edgeStyle=orthogonalEdgeStyle;rounded=0;orthogonalLoop=1;jettySize=auto;html=1;exitX=0.5;exitY=1;exitDx=0;exitDy=0;entryX=0.5;entryY=0;entryDx=0;entryDy=0;" edge="1" parent="WIyWlLk6GJQsqaUBKTNV-1" source="wgn1k_zZXrFXxsWtTA8u-42" target="wgn1k_zZXrFXxsWtTA8u-43">
          <mxGeometry relative="1" as="geometry" />
        </mxCell>
        <mxCell id="wgn1k_zZXrFXxsWtTA8u-42" value="บ้านรกขึ้น&lt;br&gt;ค่าความสดของสีลดลง" style="rounded=0;whiteSpace=wrap;html=1;" vertex="1" parent="WIyWlLk6GJQsqaUBKTNV-1">
          <mxGeometry x="550" y="770" width="120" height="30" as="geometry" />
        </mxCell>
        <mxCell id="wgn1k_zZXrFXxsWtTA8u-45" style="edgeStyle=orthogonalEdgeStyle;rounded=0;orthogonalLoop=1;jettySize=auto;html=1;exitX=1;exitY=0.5;exitDx=0;exitDy=0;entryX=0.5;entryY=0;entryDx=0;entryDy=0;" edge="1" parent="WIyWlLk6GJQsqaUBKTNV-1" source="wgn1k_zZXrFXxsWtTA8u-43" target="wgn1k_zZXrFXxsWtTA8u-44">
          <mxGeometry relative="1" as="geometry">
            <mxPoint x="690" y="890" as="targetPoint" />
          </mxGeometry>
        </mxCell>
        <mxCell id="wgn1k_zZXrFXxsWtTA8u-47" style="edgeStyle=orthogonalEdgeStyle;rounded=0;orthogonalLoop=1;jettySize=auto;html=1;exitX=0;exitY=0.5;exitDx=0;exitDy=0;entryX=0.5;entryY=1;entryDx=0;entryDy=0;" edge="1" parent="WIyWlLk6GJQsqaUBKTNV-1" source="wgn1k_zZXrFXxsWtTA8u-43" target="wgn1k_zZXrFXxsWtTA8u-24">
          <mxGeometry relative="1" as="geometry" />
        </mxCell>
        <mxCell id="wgn1k_zZXrFXxsWtTA8u-43" value="&lt;font style=&quot;font-size: 11px;&quot;&gt;ค่าความหลอน&lt;br&gt;&amp;gt;= 20&lt;/font&gt;" style="rhombus;whiteSpace=wrap;html=1;" vertex="1" parent="WIyWlLk6GJQsqaUBKTNV-1">
          <mxGeometry x="570" y="830" width="80" height="80" as="geometry" />
        </mxCell>
        <mxCell id="wgn1k_zZXrFXxsWtTA8u-57" style="edgeStyle=orthogonalEdgeStyle;rounded=0;orthogonalLoop=1;jettySize=auto;html=1;exitX=0.5;exitY=1;exitDx=0;exitDy=0;entryX=1;entryY=0.5;entryDx=0;entryDy=0;" edge="1" parent="WIyWlLk6GJQsqaUBKTNV-1" source="wgn1k_zZXrFXxsWtTA8u-44" target="wgn1k_zZXrFXxsWtTA8u-55">
          <mxGeometry relative="1" as="geometry" />
        </mxCell>
        <mxCell id="wgn1k_zZXrFXxsWtTA8u-44" value="แพ้ ไม่มีฉากจบ" style="rounded=0;whiteSpace=wrap;html=1;" vertex="1" parent="WIyWlLk6GJQsqaUBKTNV-1">
          <mxGeometry x="510" y="1000" width="120" height="30" as="geometry" />
        </mxCell>
        <mxCell id="wgn1k_zZXrFXxsWtTA8u-52" style="edgeStyle=orthogonalEdgeStyle;rounded=0;orthogonalLoop=1;jettySize=auto;html=1;exitX=0;exitY=0.5;exitDx=0;exitDy=0;entryX=0.5;entryY=0;entryDx=0;entryDy=0;" edge="1" parent="WIyWlLk6GJQsqaUBKTNV-1" source="wgn1k_zZXrFXxsWtTA8u-48" target="wgn1k_zZXrFXxsWtTA8u-54">
          <mxGeometry relative="1" as="geometry">
            <Array as="points">
              <mxPoint x="50" y="435" />
              <mxPoint x="50" y="935" />
              <mxPoint x="400" y="935" />
            </Array>
          </mxGeometry>
        </mxCell>
        <mxCell id="wgn1k_zZXrFXxsWtTA8u-53" style="edgeStyle=orthogonalEdgeStyle;rounded=0;orthogonalLoop=1;jettySize=auto;html=1;exitX=0.5;exitY=0;exitDx=0;exitDy=0;entryX=0;entryY=0.5;entryDx=0;entryDy=0;" edge="1" parent="WIyWlLk6GJQsqaUBKTNV-1" source="wgn1k_zZXrFXxsWtTA8u-48" target="wgn1k_zZXrFXxsWtTA8u-7">
          <mxGeometry relative="1" as="geometry" />
        </mxCell>
        <mxCell id="wgn1k_zZXrFXxsWtTA8u-48" value="วันที่ = 7" style="rhombus;whiteSpace=wrap;html=1;" vertex="1" parent="WIyWlLk6GJQsqaUBKTNV-1">
          <mxGeometry x="90" y="395" width="80" height="80" as="geometry" />
        </mxCell>
        <mxCell id="wgn1k_zZXrFXxsWtTA8u-56" style="edgeStyle=orthogonalEdgeStyle;rounded=0;orthogonalLoop=1;jettySize=auto;html=1;exitX=0.5;exitY=1;exitDx=0;exitDy=0;entryX=0;entryY=0.5;entryDx=0;entryDy=0;" edge="1" parent="WIyWlLk6GJQsqaUBKTNV-1" source="wgn1k_zZXrFXxsWtTA8u-54" target="wgn1k_zZXrFXxsWtTA8u-55">
          <mxGeometry relative="1" as="geometry" />
        </mxCell>
        <mxCell id="wgn1k_zZXrFXxsWtTA8u-54" value="จบเกม เห็นฉากจบ" style="rounded=0;whiteSpace=wrap;html=1;" vertex="1" parent="WIyWlLk6GJQsqaUBKTNV-1">
          <mxGeometry x="340" y="1000" width="120" height="30" as="geometry" />
        </mxCell>
        <mxCell id="wgn1k_zZXrFXxsWtTA8u-58" style="edgeStyle=orthogonalEdgeStyle;rounded=0;orthogonalLoop=1;jettySize=auto;html=1;exitX=0.5;exitY=1;exitDx=0;exitDy=0;entryX=1;entryY=0.5;entryDx=0;entryDy=0;" edge="1" parent="WIyWlLk6GJQsqaUBKTNV-1" source="wgn1k_zZXrFXxsWtTA8u-55" target="wgn1k_zZXrFXxsWtTA8u-1">
          <mxGeometry relative="1" as="geometry">
            <Array as="points">
              <mxPoint x="490" y="1130" />
              <mxPoint x="720" y="1130" />
              <mxPoint x="720" y="35" />
            </Array>
          </mxGeometry>
        </mxCell>
        <mxCell id="wgn1k_zZXrFXxsWtTA8u-55" value="เล่นใหม่" style="rounded=0;whiteSpace=wrap;html=1;" vertex="1" parent="WIyWlLk6GJQsqaUBKTNV-1">
          <mxGeometry x="430" y="1080" width="120" height="30" as="geometry" />
        </mxCell>
        <mxCell id="wgn1k_zZXrFXxsWtTA8u-59" value="ใช้" style="text;html=1;whiteSpace=wrap;strokeColor=none;fillColor=none;align=center;verticalAlign=middle;rounded=0;" vertex="1" parent="WIyWlLk6GJQsqaUBKTNV-1">
          <mxGeometry x="292" y="258" width="60" height="30" as="geometry" />
        </mxCell>
        <mxCell id="wgn1k_zZXrFXxsWtTA8u-60" value="ไม่ใช้" style="text;html=1;whiteSpace=wrap;strokeColor=none;fillColor=none;align=center;verticalAlign=middle;rounded=0;" vertex="1" parent="WIyWlLk6GJQsqaUBKTNV-1">
          <mxGeometry x="500" y="258" width="60" height="30" as="geometry" />
        </mxCell>
        <mxCell id="wgn1k_zZXrFXxsWtTA8u-61" value="ผีไม่ดี" style="text;html=1;whiteSpace=wrap;strokeColor=none;fillColor=none;align=center;verticalAlign=middle;rounded=0;" vertex="1" parent="WIyWlLk6GJQsqaUBKTNV-1">
          <mxGeometry x="464" y="548" width="60" height="30" as="geometry" />
        </mxCell>
        <mxCell id="wgn1k_zZXrFXxsWtTA8u-62" value="ผีดี" style="text;html=1;whiteSpace=wrap;strokeColor=none;fillColor=none;align=center;verticalAlign=middle;rounded=0;" vertex="1" parent="WIyWlLk6GJQsqaUBKTNV-1">
          <mxGeometry x="324" y="548" width="60" height="30" as="geometry" />
        </mxCell>
        <mxCell id="wgn1k_zZXrFXxsWtTA8u-66" style="edgeStyle=orthogonalEdgeStyle;rounded=0;orthogonalLoop=1;jettySize=auto;html=1;exitX=0;exitY=0.5;exitDx=0;exitDy=0;entryX=0.5;entryY=1;entryDx=0;entryDy=0;" edge="1" parent="WIyWlLk6GJQsqaUBKTNV-1" source="wgn1k_zZXrFXxsWtTA8u-63" target="wgn1k_zZXrFXxsWtTA8u-24">
          <mxGeometry relative="1" as="geometry" />
        </mxCell>
        <mxCell id="wgn1k_zZXrFXxsWtTA8u-63" value="ลดค่าความหลอน" style="rounded=0;whiteSpace=wrap;html=1;" vertex="1" parent="WIyWlLk6GJQsqaUBKTNV-1">
          <mxGeometry x="194" y="565" width="120" height="30" as="geometry" />
        </mxCell>
        <mxCell id="wgn1k_zZXrFXxsWtTA8u-67" value="มีไอเท็ม" style="text;html=1;whiteSpace=wrap;strokeColor=none;fillColor=none;align=center;verticalAlign=middle;rounded=0;" vertex="1" parent="WIyWlLk6GJQsqaUBKTNV-1">
          <mxGeometry x="413" y="616" width="60" height="30" as="geometry" />
        </mxCell>
        <mxCell id="wgn1k_zZXrFXxsWtTA8u-68" value="ไม่มีไอเท็ม" style="text;html=1;whiteSpace=wrap;strokeColor=none;fillColor=none;align=center;verticalAlign=middle;rounded=0;" vertex="1" parent="WIyWlLk6GJQsqaUBKTNV-1">
          <mxGeometry x="577" y="616" width="60" height="30" as="geometry" />
        </mxCell>
        <mxCell id="wgn1k_zZXrFXxsWtTA8u-69" value="จริง" style="text;html=1;whiteSpace=wrap;strokeColor=none;fillColor=none;align=center;verticalAlign=middle;rounded=0;" vertex="1" parent="WIyWlLk6GJQsqaUBKTNV-1">
          <mxGeometry x="650" y="840" width="60" height="30" as="geometry" />
        </mxCell>
        <mxCell id="wgn1k_zZXrFXxsWtTA8u-70" value="ไม่จริง" style="text;html=1;whiteSpace=wrap;strokeColor=none;fillColor=none;align=center;verticalAlign=middle;rounded=0;" vertex="1" parent="WIyWlLk6GJQsqaUBKTNV-1">
          <mxGeometry x="517" y="840" width="60" height="30" as="geometry" />
        </mxCell>
        <mxCell id="wgn1k_zZXrFXxsWtTA8u-71" value="จริง" style="text;html=1;whiteSpace=wrap;strokeColor=none;fillColor=none;align=center;verticalAlign=middle;rounded=0;" vertex="1" parent="WIyWlLk6GJQsqaUBKTNV-1">
          <mxGeometry x="35" y="402" width="60" height="30" as="geometry" />
        </mxCell>
        <mxCell id="wgn1k_zZXrFXxsWtTA8u-72" value="ไม่จริง" style="text;html=1;whiteSpace=wrap;strokeColor=none;fillColor=none;align=center;verticalAlign=middle;rounded=0;" vertex="1" parent="WIyWlLk6GJQsqaUBKTNV-1">
          <mxGeometry x="113" y="68" width="60" height="30" as="geometry" />
        </mxCell>
      </root>
    </mxGraphModel>
  </diagram>
</mxfile>
